<svg width="16" height="17" viewBox="0 0 16 17" fill="none" xmlns="http://www.w3.org/2000/svg">
<path d="M14 10.5H10V12H14C14.25 12 14.5 12.25 14.5 12.5V15C14.5 15.2812 14.25 15.5 14 15.5H2C1.71875 15.5 1.5 15.2812 1.5 15V12.5C1.5 12.25 1.71875 12 2 12H6V10.5H2C0.875 10.5 0 11.4062 0 12.5V15C0 16.125 0.875 17 2 17H14C15.0938 17 16 16.125 16 15V12.5C16 11.4062 15.0938 10.5 14 10.5ZM4.25 6.53125L7.25 3.5625V12C7.25 12.4375 7.5625 12.75 8 12.75C8.40625 12.75 8.75 12.4375 8.75 12V3.5625L11.7188 6.53125C11.8438 6.6875 12.0312 6.75 12.25 6.75C12.4375 6.75 12.625 6.6875 12.75 6.53125C13.0625 6.25 13.0625 5.78125 12.75 5.5L8.5 1.25C8.21875 0.9375 7.75 0.9375 7.46875 1.25L3.21875 5.5C2.90625 5.78125 2.90625 6.25 3.21875 6.53125C3.5 6.84375 3.96875 6.84375 4.25 6.53125ZM13.5 13.75C13.5 13.3438 13.1562 13 12.75 13C12.3125 13 12 13.3438 12 13.75C12 14.1875 12.3125 14.5 12.75 14.5C13.1562 14.5 13.5 14.1875 13.5 13.75Z" fill="#34AC80"/>
</svg>
